<svg width="1440" height="1087" viewBox="0 0 1440 1087" fill="none" xmlns="http://www.w3.org/2000/svg">
<path d="M1441.5 176.838L-2 503.411L-1.49983 1087H1442L1441.5 176.838Z" fill="#FAF4FF"/>
<path d="M49.0001 47.831V491.854L331 427.92V47.831H49.0001Z" fill="#FAF4FF"/>
<path d="M661 353.104V47.831H380V416.811L661 353.104Z" fill="#FAF4FF"/>
<path d="M685.5 347.55V1H355.25L355 422.479L380 416.811V47.831H661V353.104L685.5 347.55Z" fill="#CEB4E2"/>
<path d="M25.0001 1L24.5001 497.409L49.0001 491.854V47.831H331V427.92L355 422.479L355.25 1H25.0001Z" fill="#CEB4E2"/>
<path d="M685.5 347.55V1M685.5 347.55L661 353.104M685.5 347.55L733 337.263L1466 171.564M685.5 1H355.25M685.5 1H25.0001M25.0001 1L24.5001 497.409M25.0001 1H355.25M24.5001 497.409L49.0001 491.854M24.5001 497.409L-1 503.324M355 422.479L355.25 1M355 422.479L380 416.811M355 422.479L331 427.92M49.0001 491.854V47.831H331V427.92M49.0001 491.854L331 427.92M661 353.104V47.831H380V416.811M661 353.104L380 416.811M380 416.811L331 427.92" stroke="#3B3166" stroke-width="2"/>
</svg>
